<svg width="142" height="120" viewBox="0 0 142 120" fill="none" xmlns="http://www.w3.org/2000/svg">
<path d="M142 59.9978C142 79.5082 126.686 120 81.7046 120C36.7234 120 0 59.9978 0 59.9978C0 59.9978 36.7496 0 81.7265 0C126.703 0 142 40.4918 142 59.9978Z" fill="#1CDBF1"/>
<path d="M100.868 72.4162C115.513 72.4162 127.385 60.3044 127.385 45.3637C127.385 30.423 115.513 18.3112 100.868 18.3112C86.2228 18.3112 74.3508 30.423 74.3508 45.3637C74.3508 60.3044 86.2228 72.4162 100.868 72.4162Z" fill="#F5F5F6"/>
<path d="M100.868 62.4539C110.119 62.4539 117.619 54.8024 117.619 45.3639C117.619 35.9253 110.119 28.2739 100.868 28.2739C91.6161 28.2739 84.1162 35.9253 84.1162 45.3639C84.1162 54.8024 91.6161 62.4539 100.868 62.4539Z" fill="#131B24"/>
</svg>
